<?xml version="1.0" standalone="no"?>
<!DOCTYPE svg PUBLIC "-//W3C//DTD SVG 20010904//EN"
 "http://www.w3.org/TR/2001/REC-SVG-20010904/DTD/svg10.dtd">
<svg version="1.0" xmlns="http://www.w3.org/2000/svg"
 width="546.000000pt" height="442.000000pt" viewBox="0 0 546.000000 442.000000"
 preserveAspectRatio="xMidYMid meet">

<g transform="translate(0.000000,442.000000) scale(0.100000,-0.100000)"
fill="#000000" stroke="none">
<path d="M2719 3973 c-5 -15 -114 -327 -240 -693 -126 -365 -233 -667 -237
-671 -4 -4 -351 -105 -770 -225 -482 -137 -766 -223 -769 -231 -3 -8 -2 -18 3
-23 5 -5 351 -104 769 -220 418 -117 764 -218 769 -225 5 -7 116 -320 246
-696 204 -592 239 -684 255 -684 17 0 52 94 260 695 l240 695 765 213 c421
117 769 217 774 222 5 5 6 15 4 22 -3 8 -318 102 -774 233 l-769 219 -240 695
c-250 723 -259 745 -286 674z"/>
</g>
</svg>
